<svg xmlns="http://www.w3.org/2000/svg" id="Capa_1" height="512" viewBox="0 0 510.929 510.929" width="512"><g><path d="m375.219 495.929h15v15h-15z"></path><path d="m254.698 0-254.312 143.239v52.715h16.769l43.548-24.079v339.054h299.517v-15h-284.518v-14.501h360.017v14.501h-30.5v15h45.5l-.001-338.957 41.304 23.033 1.703.949h16.817v-52.728zm-178.996 211.927h74.999v29.499h-74.999zm0 44.499h74.999v29.5h-74.999zm0 44.5h74.999v30.501h-74.999zm0 45.501h74.999v29.5h-74.999zm0 44.5h74.999v30.5h-74.999zm0 45.5h74.999v30.001h-74.999zm240.009 30.001h-119.992v-225h119.992zm45.008 0v-30.001h74.999v30.001zm0-45.001v-30.5h74.999v30.5zm0-45.5v-29.5h74.999v29.5zm0-44.5v-30.501h74.999v30.501zm0-45.501v-29.5h74.999v29.5zm0-44.5v-29.499h74.999v29.499zm0-44.499v-.5h-45.5v15h30.5v255.001h-15.008v-240h-149.992v240h-15.018v-255.001h134.518v-15h-149.518v.5h-74.999v-15.5h360.016v15.5zm134.824-17.134-240.078-133.874-108.899 60.716 7.305 13.102 101.594-56.644 185.309 103.334h-370.218l69.307-38.322-7.258-13.127-117.219 64.814v-27.785l239.334-134.804 240.823 134.817z"></path><path d="m217.719 121.418h15v15h-15z"></path><path d="m277.719 121.418h15v15h-15z"></path><path d="m247.719 121.418h15v15h-15z"></path><path d="m285.385 346.428h15v15h-15z"></path></g></svg>