<svg xmlns="http://www.w3.org/2000/svg" width="512" height="512" viewBox="0 0 512 512"><g><path d="M120,376a24,24,0,1,0,24,24A24.027,24.027,0,0,0,120,376Zm0,32a8,8,0,1,1,8-8A8.009,8.009,0,0,1,120,408Z"></path><path d="M408,376a24,24,0,1,0,24,24A24.027,24.027,0,0,0,408,376Zm0,32a8,8,0,1,1,8-8A8.009,8.009,0,0,1,408,408Z"></path><path d="M500.54,196.63a6.691,6.691,0,0,0-.39-1A56.092,56.092,0,0,0,448,160H400v-8h40a8,8,0,0,0,8-8V120a8,8,0,0,0-8-8H416V96a8,8,0,0,0-8-8h-8V64a8,8,0,0,0-8-8H352a8,8,0,0,0-8,8V88h-8V80a8,8,0,0,0-8-8H296V64a8,8,0,0,0-8-8H224a8,8,0,0,0-8,8V80H136a8,8,0,0,0-8,8v24H97a8,8,0,0,0-8,8v24a8,8,0,0,0,8,8h55v8H99.19a56.044,56.044,0,0,0-51.17,33.26c-.1.22-.18.44-.26.67l-1.26,3.68v.01L8.43,309.42A7.8,7.8,0,0,0,8,312v88a8,8,0,0,0,8,8H64.58a55.994,55.994,0,0,0,110.84,0H352.58a55.994,55.994,0,0,0,110.84,0H496a8,8,0,0,0,8-8V216A55.569,55.569,0,0,0,500.54,196.63ZM360,72h24V88H360Zm-24,32h64v8H336ZM296,88h24v24H296ZM232,72h48v40H232ZM144,96h72v16H144Zm-39,40v-8H432v8Zm279,16v8H168v-8ZM59.87,208H144v64H38.07ZM24,352H40v8H24Zm96,88a40,40,0,1,1,40-40A40.04,40.04,0,0,1,120,440Zm288,0a40,40,0,1,1,40-40A40.04,40.04,0,0,1,408,440Zm80-80h-8v-8h8Zm0-24h-8a16.021,16.021,0,0,0-16,16v8a16.021,16.021,0,0,0,16,16h8v16H463.42a55.994,55.994,0,0,0-110.84,0H175.42a55.994,55.994,0,0,0-110.84,0H24V376H40a16.021,16.021,0,0,0,16-16v-8a16.021,16.021,0,0,0-16-16H24V313.32L32.62,288H152a8,8,0,0,0,8-8V200a8,8,0,0,0-8-8H67.2a40.023,40.023,0,0,1,31.99-16H448a39.928,39.928,0,0,1,31.19,15H408a8,8,0,0,0-8,8v81a8,8,0,0,0,8,8h80Zm0-64H416V207h70.97a40.44,40.44,0,0,1,1.03,9Z"></path><path d="M376,192H184a8,8,0,0,0-8,8v80a8,8,0,0,0,8,8H376a8,8,0,0,0,8-8V200A8,8,0,0,0,376,192ZM192,208h80v64H192Zm176,64H288V208h80Z"></path></g></svg>