<svg xmlns="http://www.w3.org/2000/svg" id="Capa_1" height="512" viewBox="0 0 510.512 510.512" width="512"><g><path d="m510.122 295.043c0-15.323-11.441-28.491-26.614-30.63l-36.39-5.131c-7.779-1.097-14.661-5.874-18.408-12.78l-30.235-55.713c8.352-4.23 14.093-12.892 14.093-22.876v-33.15c0-20.695-16.837-37.531-37.531-37.531h-82.201v-17.996c0-7.607-6.189-13.795-13.795-13.795h-92.214c-7.606 0-13.795 6.189-13.795 13.795v17.994h-68.596c-4.143 0-7.5 3.358-7.5 7.5s3.357 7.5 7.5 7.5h270.601c12.424 0 22.531 10.108 22.531 22.531v3.907h-85.716c-4.143 0-7.5 3.358-7.5 7.5s3.357 7.5 7.5 7.5h85.716v14.244c0 5.862-4.77 10.631-10.632 10.631h-78.165c-7.836 0-14.211 6.375-14.211 14.211v185.021h-16.488v-74.954c0-4.142-3.357-7.5-7.5-7.5s-7.5 3.358-7.5 7.5v74.748h-69.102v-179.383c0-2.56 2.083-4.643 4.644-4.643h59.815c2.56 0 4.643 2.083 4.643 4.643v74.635c0 4.142 3.357 7.5 7.5 7.5s7.5-3.358 7.5-7.5v-74.635c0-10.831-8.813-19.643-19.643-19.643h-59.815c-10.831 0-19.644 8.812-19.644 19.643v93.387h-163.97v-163.176c0-8.914 7.253-16.167 16.167-16.167h43.27c4.143 0 7.5-3.358 7.5-7.5s-3.357-7.5-7.5-7.5h-43.27c-17.186 0-31.167 13.981-31.167 31.167v227.347c0 20.419 16.612 37.032 37.032 37.032h7.711c2.97 29.326 27.927 52.295 58.177 52.295s55.207-22.969 58.177-52.295h17.873v20.919c0 7.544 6.138 13.681 13.682 13.681h71.739c7.544 0 13.682-6.137 13.682-13.681v-20.919l84.105-.042c2.951 29.347 27.916 52.338 58.18 52.338 30.27 0 55.239-23 58.182-52.355l11.906-.053c5.377-.003 10.427-2.104 14.221-5.915 3.793-3.812 5.869-8.873 5.846-14.256zm-322.09-214.602h89.804v16.789h-89.804zm307.09 214.639.115 22.776h-20.239c-2.481 0-4.501-2.019-4.501-4.501v-35.63l10.917 1.539c7.814 1.103 13.708 7.886 13.708 15.816zm-153.7-101.537h41.052l27.147 50.024h-61.462c-3.715 0-6.737-3.023-6.737-6.738zm-326.422 162.201v-49.171h163.97v71.202h-18.3c-4.415-27.755-28.627-49.046-57.75-49.046s-53.334 21.29-57.75 49.046h-8.138c-12.148.001-22.032-9.883-22.032-22.031zm87.92 74.327c-23.972 0-43.475-19.366-43.475-43.17s19.503-43.171 43.475-43.171 43.475 19.366 43.475 43.171c0 23.804-19.503 43.17-43.475 43.17zm160.152-17.695h-69.102v-19.6h69.103v19.6zm157.285 17.695c-23.972 0-43.475-19.366-43.475-43.17s19.503-43.171 43.475-43.171 43.475 19.366 43.475 43.171c0 23.804-19.503 43.17-43.475 43.17zm73.676-53.904c-.959.964-2.236 1.495-3.625 1.496l-12.312.055c-4.44-27.727-28.637-48.988-57.739-48.988-29.108 0-53.309 21.269-57.742 49.003l-21.194.012v-74.749c0-4.142-3.357-7.5-7.5-7.5s-7.5 3.358-7.5 7.5v74.757l-16.861.009v-184.219h16.861v43.286c0 11.986 9.751 21.737 21.737 21.737h70.545c6.317 8.389 15.799 14.083 26.32 15.567l10.473 1.477v37.746c0 10.753 8.748 19.501 19.501 19.501h20.314l.2 39.706c.006 1.36-.519 2.64-1.478 3.604z"></path><path d="m348.228 266.755h-7.32c-4.143 0-7.5 3.358-7.5 7.5s3.357 7.5 7.5 7.5h7.32c4.143 0 7.5-3.358 7.5-7.5s-3.357-7.5-7.5-7.5z"></path><path d="m420.357 361.623c-13.997 0-25.385 11.339-25.385 25.278 0 13.938 11.388 25.278 25.385 25.278s25.385-11.339 25.385-25.278-11.388-25.278-25.385-25.278zm0 35.555c-5.727 0-10.385-4.611-10.385-10.278s4.658-10.278 10.385-10.278 10.385 4.611 10.385 10.278c0 5.668-4.658 10.278-10.385 10.278z"></path><path d="m102.92 361.623c-13.997 0-25.384 11.339-25.384 25.278 0 13.938 11.387 25.278 25.384 25.278s25.385-11.339 25.385-25.278-11.388-25.278-25.385-25.278zm0 35.555c-5.726 0-10.384-4.611-10.384-10.278s4.658-10.278 10.384-10.278c5.727 0 10.385 4.611 10.385 10.278 0 5.668-4.659 10.278-10.385 10.278z"></path><path d="m34.229 193.391v52.335c0 8.187 6.66 14.848 14.848 14.848h95.496c8.188 0 14.848-6.661 14.848-14.848v-52.335c0-8.187-6.66-14.848-14.848-14.848h-95.497c-8.187 0-14.847 6.661-14.847 14.848zm110.191 52.182h-40.096v-52.03h40.096zm-95.191-52.03h40.096v52.03h-40.096z"></path></g></svg>