<svg xmlns="http://www.w3.org/2000/svg" id="Layer_1" data-name="Layer 1" viewBox="0 0 512 512" width="512" height="512"><path d="M407.5,346.4a25.16,25.16,0,1,0,25.16,25.16A25.189,25.189,0,0,0,407.5,346.4Zm0,38.32a13.16,13.16,0,1,1,13.16-13.16A13.175,13.175,0,0,1,407.5,384.72Z"></path><path d="M34,201a6,6,0,0,0-6,6v13.5a6,6,0,0,0,12,0V207A6,6,0,0,0,34,201Z"></path><path d="M95.15,112a6,6,0,0,0-6-6H48.28C37.252,106,28,114.552,28,125.58V190.5a6,6,0,0,0,12,0V125.58c0-4.411,3.869-7.58,8.28-7.58H89.15A6,6,0,0,0,95.15,112Z"></path><path d="M140,173H65a6,6,0,0,0-6,6v96a6,6,0,0,0,6,6h75a6,6,0,0,0,6-6V179A6,6,0,0,0,140,173Zm-7,97H71V213h62Zm0-69H71V185h62Z"></path><path d="M389.892,175.967A6.133,6.133,0,0,0,384.8,173H329.69c-3.314,0-5.69,2.966-5.69,6.28v51.73a5.735,5.735,0,0,0,5.69,5.99h87.35a6,6,0,0,0,5.246-3.083,6.124,6.124,0,0,0-.154-6.153ZM336,225V185h45.469l24.762,40Z"></path><path d="M246,284a6,6,0,0,0,6-6V263a6,6,0,0,0-12,0v15A6,6,0,0,0,246,284Z"></path><path d="M476.911,235.222l-13.869-2a4.37,4.37,0,0,1-2.91-1.6L406.23,160h52.92a6.049,6.049,0,0,0,5.85-6.2V125.58A35.556,35.556,0,0,0,429.15,90H48.28C28.429,90,12,105.729,12,125.58v224.5A26.2,26.2,0,0,0,38.28,376H54.263a50.931,50.931,0,0,0,48.354,46.369c.782.036,1.558.053,2.333.053A50.928,50.928,0,0,0,155.583,376H356.865a50.854,50.854,0,0,0,101.249,0H473.72c14.336,0,26.28-11.264,26.28-25.6V261.74A27.076,27.076,0,0,0,476.911,235.222Zm-333.166,138.1a38.91,38.91,0,0,1-38.8,37.1c-.59,0-1.186-.013-1.782-.04a38.864,38.864,0,1,1,40.584-37.063ZM259,364H186V185h73Zm148.49,46.42a38.9,38.9,0,0,1-38.86-38.86c0-.339,0-.678.008-1.016h0a38.865,38.865,0,0,1,77.7.011c.009.338.008.668.008,1.006A38.9,38.9,0,0,1,407.49,410.42ZM488,296H463V277h25Zm0-31H457.33c-3.314,0-6.33,2.187-6.33,5.5V302a6.291,6.291,0,0,0,6.33,6H488v42.4c0,7.72-6.56,13.6-14.28,13.6H457.841a50.883,50.883,0,0,0-100.7,0H312V274.765a6,6,0,0,0-12,0V364H271V179.28a6.661,6.661,0,0,0-6.47-6.28H179.97a6.22,6.22,0,0,0-5.97,6.28V364H155.217a50.862,50.862,0,0,0-100.6,0H38.28A14.19,14.19,0,0,1,24,350.08V125.58C24,112.347,35.046,102,48.28,102H429.15A23.544,23.544,0,0,1,453,125.58V148H326.3c-14.336,0-26.3,11.463-26.3,25.8V253a6,6,0,0,0,12,0V173.8c0-7.72,6.58-13.8,14.3-13.8h64.923l59.285,78.831a16.221,16.221,0,0,0,10.751,6.317l13.926,1.974A14.985,14.985,0,0,1,488,261.74Z"></path><path d="M104.923,346.4a25.161,25.161,0,1,0,25.16,25.161A25.189,25.189,0,0,0,104.923,346.4Zm0,38.321a13.161,13.161,0,1,1,13.16-13.16A13.175,13.175,0,0,1,104.923,384.72Z"></path></svg>