<svg xmlns="http://www.w3.org/2000/svg" id="Capa_1" height="512" viewBox="0 0 511.982 511.982" width="512"><g><path d="m453.584 390.253c-7.506-7.506-21.804-11.847-42.496-12.9-6.767-.344-16.477-.285-23.013.115l-31.031-31.031c27.516-28.422 52.406-61.351 74.05-97.988 2.107-3.566.924-8.165-2.643-10.272-3.565-2.104-8.164-.923-10.272 2.643-22.374 37.874-48.281 71.639-77.001 100.359-45.702 45.702-103.212 83.605-170.931 112.656-55.656 23.875-105.913 36.494-138.272 42.875-4.731.931-9.399-.486-12.809-3.894-3.408-3.408-4.827-8.077-3.894-12.809 6.286-31.882 21.687-95.479 54.192-163.196 1.792-3.734.218-8.214-3.517-10.007-3.729-1.793-8.214-.22-10.007 3.516-31.557 65.746-47.537 126.987-55.384 166.785-1.889 9.578 1.103 19.417 8.004 26.317 5.539 5.539 12.97 8.56 20.641 8.56 1.886 0 3.786-.183 5.677-.556 33.068-6.521 84.424-19.415 141.284-43.807 66.873-28.689 124.114-65.872 170.273-110.579l30.142 30.142c-.834 11.56-2.565 52.159 12.677 67.401l52.584 52.583c2.994 2.995 6.977 4.645 11.212 4.645 4.234 0 8.216-1.649 11.212-4.644l41.908-41.909c6.182-6.182 6.182-16.241 0-22.422zm41.977 64.4-41.907 41.908c-.334.333-.878.333-1.21 0l-52.584-52.584c-7.983-7.982-9.481-33.673-8.578-51.695 18.026-.899 43.719.599 51.695 8.577l52.584 52.584c.334.334.334.877 0 1.21z"></path><path d="m503.423 8.559c-6.9-6.901-16.734-9.892-26.317-8.004-33.068 6.521-84.424 19.415-141.284 43.808-66.873 28.688-124.114 65.872-170.273 110.578l-29.445-29.445c.846-12.665 2.115-51.61-12.742-66.467l-52.586-52.584c-2.995-2.995-6.976-4.644-11.211-4.644s-8.218 1.649-11.212 4.644l-41.909 41.909c-6.182 6.182-6.182 16.241 0 22.422l52.585 52.584c11.097 11.097 35.632 13.197 52.619 13.197 5.759 0 10.641-.241 13.847-.456l29.451 29.451c-32.126 33.181-60.584 72.383-84.639 116.656-1.978 3.639-.631 8.193 3.009 10.17 1.138.619 2.364.912 3.574.912 2.66 0 5.237-1.419 6.597-3.921 24.672-45.406 54.05-85.297 87.317-118.565 45.702-45.702 103.212-83.605 170.931-112.656 55.656-23.876 105.913-36.495 138.272-42.876 4.73-.933 9.4.486 12.809 3.894 3.408 3.408 4.827 8.077 3.894 12.809-7.11 36.056-24.804 107.598-63.417 181.626-1.916 3.673-.492 8.203 3.181 10.119 3.673 1.914 8.203.492 10.118-3.181 39.483-75.696 57.568-148.814 64.835-185.662 1.888-9.578-1.104-19.417-8.004-26.318zm-382.09 112.729c-4.73.216-11.635.37-19.043-.008-16.156-.823-28.058-3.93-32.653-8.526l-52.585-52.584c-.167-.166-.251-.37-.251-.605s.084-.439.251-.605l41.909-41.909c.166-.166.369-.25.604-.25s.438.084.604.25l52.584 52.584c7.974 7.973 9.477 33.634 8.58 51.653z"></path><path d="m316.313 100.174c-51.851 21.745-95.843 50.472-130.756 85.384-34.911 34.912-63.639 78.904-85.383 130.755-11.682 27.853-5.665 58.429 15.699 79.794 14.152 14.152 32.347 21.57 51.114 21.57 9.564 0 19.277-1.926 28.681-5.87 51.851-21.745 95.843-50.472 130.756-85.384 34.911-34.912 63.639-78.904 85.383-130.755 11.682-27.854 5.665-58.429-15.699-79.794-21.364-21.364-51.939-27.381-79.795-15.7zm-126.445 297.801c-22.127 9.278-46.415 4.498-63.388-12.474-16.973-16.973-21.752-41.261-12.474-63.387 15.99-38.128 35.853-71.788 59.228-100.492l117.124 117.126c-28.703 23.375-62.363 43.238-100.49 59.227zm125.949-82.158c-4.503 4.503-9.178 8.891-13.997 13.179l-118.834-118.835c.113-.126 8.829-9.647 13.179-13.997 6.447-6.447 21.198-19.402 21.299-19.487l117.841 117.841c-6.258 7.445-12.748 14.559-19.488 21.299zm82.158-125.949c-14.6 34.814-32.428 65.905-53.21 92.899l-115.55-115.55c26.994-20.781 58.085-38.609 92.898-53.209 7.47-3.132 15.184-4.663 22.781-4.663 14.908 0 29.363 5.894 40.606 17.136 16.975 16.972 21.754 41.261 12.475 63.387z"></path><path d="m66.656 411.826c-2.929 2.929-2.929 7.678 0 10.606l22.894 22.894c1.465 1.464 3.385 2.197 5.304 2.197s3.839-.732 5.304-2.197c2.929-2.929 2.929-7.678 0-10.607l-22.894-22.893c-2.93-2.929-7.678-2.929-10.608 0z"></path><path d="m433.825 108.551c1.919 0 3.839-.732 5.304-2.197 2.929-2.929 2.929-7.678 0-10.606l-22.894-22.894c-2.93-2.929-7.678-2.929-10.607 0s-2.929 7.678 0 10.606l22.894 22.894c1.464 1.464 3.384 2.197 5.303 2.197z"></path></g></svg>