<svg xmlns="http://www.w3.org/2000/svg" id="Layer_1" height="512" viewBox="0 0 512 512" width="512"><g><path d="m104.085 425.786c4.142 0 7.5-3.358 7.5-7.5s-3.358-7.5-7.5-7.5h-47.795c-4.142 0-7.5 3.358-7.5 7.5s3.358 7.5 7.5 7.5z"></path><path d="m152.085 425.786c4.142 0 7.5-3.358 7.5-7.5s-3.358-7.5-7.5-7.5h-17.795c-4.142 0-7.5 3.358-7.5 7.5s3.358 7.5 7.5 7.5z"></path><path d="m231.29 450.876c-4.142 0-7.5 3.358-7.5 7.5s3.358 7.5 7.5 7.5h20.795c4.142 0 7.5-3.358 7.5-7.5s-3.358-7.5-7.5-7.5z"></path><path d="m118.79 458.376c0 4.142 3.358 7.5 7.5 7.5h74.795c4.142 0 7.5-3.358 7.5-7.5s-3.358-7.5-7.5-7.5h-74.795c-4.142 0-7.5 3.358-7.5 7.5z"></path><path d="m386.88 410.786h-67.795c-4.142 0-7.5 3.358-7.5 7.5s3.358 7.5 7.5 7.5h67.795c4.142 0 7.5-3.358 7.5-7.5s-3.358-7.5-7.5-7.5z"></path><path d="m288.88 425.786c4.142 0 7.5-3.358 7.5-7.5s-3.358-7.5-7.5-7.5h-27.795c-4.142 0-7.5 3.358-7.5 7.5s3.358 7.5 7.5 7.5z"></path><path d="m335.05 458.376c0 4.142 3.358 7.5 7.5 7.5h104.154c4.142 0 7.5-3.358 7.5-7.5s-3.358-7.5-7.5-7.5h-104.154c-4.142 0-7.5 3.358-7.5 7.5z"></path><path d="m504.5 497h-91.412c-4.142 0-7.5 3.358-7.5 7.5s3.358 7.5 7.5 7.5h91.412c4.142 0 7.5-3.358 7.5-7.5s-3.358-7.5-7.5-7.5z"></path><path d="m504.5 345.639c-13.391 0-20.342 6.728-25.927 12.133-4.746 4.593-8.175 7.912-15.496 7.912s-10.75-3.319-15.496-7.912c-5.585-5.406-12.537-12.133-25.927-12.133s-20.34 6.728-25.925 12.133c-4.745 4.593-8.173 7.912-15.492 7.912s-10.748-3.318-15.493-7.912c-5.585-5.406-12.536-12.133-25.925-12.133s-20.34 6.728-25.925 12.134c-4.745 4.593-8.173 7.911-15.492 7.911s-10.747-3.318-15.492-7.912c-5.584-5.406-12.535-12.133-25.924-12.133-13.388 0-20.338 6.728-25.922 12.134-4.744 4.593-8.172 7.911-15.489 7.911-7.318 0-10.747-3.318-15.491-7.911-5.584-5.406-12.535-12.134-25.924-12.134s-20.34 6.728-25.925 12.134c-4.745 4.593-8.173 7.911-15.492 7.911s-10.747-3.318-15.492-7.912c-5.584-5.406-12.535-12.133-25.924-12.133s-20.339 6.728-25.923 12.134c-4.745 4.593-8.173 7.911-15.491 7.911s-10.746-3.318-15.49-7.911c-5.584-5.406-12.534-12.134-25.923-12.134-4.142 0-7.5 3.358-7.5 7.5s3.358 7.5 7.5 7.5c7.318 0 10.746 3.318 15.49 7.911 5.584 5.406 12.534 12.134 25.923 12.134s20.339-6.728 25.923-12.134c4.745-4.593 8.173-7.911 15.491-7.911s10.747 3.318 15.492 7.912c5.584 5.406 12.535 12.133 25.924 12.133s20.339-6.728 25.924-12.133c4.745-4.593 8.173-7.912 15.492-7.912s10.747 3.318 15.492 7.912c5.584 5.406 12.535 12.133 25.924 12.133 13.388 0 20.338-6.728 25.922-12.134 4.744-4.593 8.171-7.911 15.489-7.911 7.319 0 10.747 3.318 15.492 7.912 5.584 5.406 12.535 12.133 25.924 12.133s20.339-6.728 25.924-12.133c4.745-4.593 8.173-7.912 15.492-7.912s10.748 3.318 15.493 7.912c5.585 5.406 12.536 12.133 25.926 12.133s20.34-6.728 25.925-12.133c4.745-4.593 8.173-7.912 15.492-7.912 7.321 0 10.75 3.319 15.496 7.912 5.585 5.406 12.537 12.133 25.927 12.133s20.342-6.728 25.927-12.133c4.746-4.593 8.175-7.912 15.496-7.912 4.142 0 7.5-3.358 7.5-7.5s-3.358-7.5-7.5-7.5z"></path><path d="m378.232 497h-370.732c-4.142 0-7.5 3.358-7.5 7.5s3.358 7.5 7.5 7.5h370.732c4.142 0 7.5-3.358 7.5-7.5s-3.358-7.5-7.5-7.5z"></path><path d="m7.5 330.775h236.066c4.142 0 7.5-3.358 7.5-7.5s-3.358-7.5-7.5-7.5h-71.131l80.615-117.768 27.146 27.157c1.406 1.407 3.314 2.198 5.304 2.198s3.898-.791 5.304-2.198l28.104-28.115 28.104 28.115c1.406 1.407 3.314 2.198 5.304 2.198s3.898-.791 5.304-2.198l27.02-27.031 80.529 117.642h-187.169c-4.142 0-7.5 3.358-7.5 7.5s3.358 7.5 7.5 7.5h226.5c4.142 0 7.5-3.358 7.5-7.5s-3.358-7.5-7.5-7.5h-21.152l-158.356-231.336c-1.398-2.042-3.714-3.264-6.189-3.264s-4.791 1.221-6.189 3.264l-86.551 126.439-36.614-53.488c-1.398-2.042-3.714-3.264-6.189-3.264s-4.791 1.221-6.189 3.264l-108.419 158.385h-61.152c-4.142 0-7.5 3.358-7.5 7.5s3.358 7.5 7.5 7.5zm311.303-228.822 57.218 83.588-23.703 23.713-28.104-28.115c-1.406-1.407-3.314-2.198-5.304-2.198s-3.898.791-5.304 2.198l-28.106 28.114-23.83-23.839zm-135.543 72.951 33.714 49.251-62.717 91.62h-67.427z"></path><path d="m108.994 110.231c17.203 0 31.199-14 31.199-31.208s-13.996-31.208-31.199-31.208-31.199 14-31.199 31.208 13.996 31.208 31.199 31.208zm0-47.416c8.932 0 16.199 7.271 16.199 16.208 0 8.938-7.267 16.208-16.199 16.208s-16.199-7.271-16.199-16.208 7.267-16.208 16.199-16.208z"></path><path d="m101.494 132.744v17.802c0 4.142 3.358 7.5 7.5 7.5s7.5-3.358 7.5-7.5v-17.802c0-4.142-3.358-7.5-7.5-7.5s-7.5 3.358-7.5 7.5z"></path><path d="m108.994 32.803c4.142 0 7.5-3.358 7.5-7.5v-17.803c0-4.142-3.358-7.5-7.5-7.5s-7.5 3.358-7.5 7.5v17.803c0 4.142 3.358 7.5 7.5 7.5z"></path><path d="m37.5 86.523h17.795c4.142 0 7.5-3.358 7.5-7.5s-3.358-7.5-7.5-7.5h-17.795c-4.142 0-7.5 3.358-7.5 7.5s3.358 7.5 7.5 7.5z"></path><path d="m155.193 79.023c0 4.142 3.358 7.5 7.5 7.5h17.795c4.142 0 7.5-3.358 7.5-7.5s-3.358-7.5-7.5-7.5h-17.795c-4.142 0-7.5 3.358-7.5 7.5z"></path><path d="m65.719 111.707-12.583 12.588c-2.928 2.929-2.928 7.678.002 10.606 1.464 1.464 3.383 2.196 5.302 2.196s3.84-.733 5.304-2.198l12.583-12.588c2.928-2.929 2.928-7.678-.002-10.606-2.928-2.928-7.677-2.928-10.606.002z"></path><path d="m146.965 48.537c1.92 0 3.84-.733 5.304-2.198l12.583-12.588c2.929-2.93 2.928-7.678-.002-10.606-2.93-2.929-7.679-2.927-10.606.002l-12.583 12.588c-2.929 2.93-2.928 7.678.002 10.606 1.464 1.464 3.383 2.196 5.302 2.196z"></path><path d="m65.719 46.339c1.464 1.465 3.384 2.198 5.304 2.198 1.919 0 3.838-.732 5.302-2.196 2.93-2.928 2.931-7.677.002-10.606l-12.583-12.589c-2.928-2.93-7.677-2.931-10.606-.002-2.93 2.928-2.931 7.677-.002 10.606z"></path><path d="m141.663 111.705c-2.93 2.928-2.931 7.677-.002 10.606l12.583 12.588c1.464 1.465 3.384 2.198 5.304 2.198 1.919 0 3.838-.732 5.302-2.196 2.93-2.928 2.931-7.677.002-10.606l-12.583-12.588c-2.928-2.93-7.677-2.931-10.606-.002z"></path></g></svg>