<svg xmlns="http://www.w3.org/2000/svg" height="512" viewBox="0 0 512 512" width="512"><path d="m500.44 425.34a8.013 8.013 0 0 0 -11.1 2.22l-9.18 13.78-214.61-337.24 29.11-43.66a8 8 0 1 0 -13.32-8.88l-25.34 38.02-25.34-38.02a8 8 0 1 0 -13.32 8.88l29.11 43.66-214.61 337.24-9.18-13.78a8 8 0 1 0 -13.32 8.88l16 24a8.033 8.033 0 0 0 6.66 3.56h448a8.033 8.033 0 0 0 6.66-3.56l16-24a8.013 8.013 0 0 0 -2.22-11.1zm-312 22.66 67.61-184.84 68.46 184.84zm91.53-166.3 78.84 95.73-22.52 56.31zm67.85 166.3 27.61-69.03a8.036 8.036 0 0 0 -1.25-8.06l-112-136a8 8 0 0 0 -13.69 2.34l-77.08 210.75h-124.84l209.43-329.1 209.43 329.1z"></path></svg>