<svg xmlns="http://www.w3.org/2000/svg" xmlns:xlink="http://www.w3.org/1999/xlink" id="Capa_1" x="0px" y="0px" viewBox="0 0 512 512" style="enable-background:new 0 0 512 512;" xml:space="preserve">
<g>
	<g>
		<path d="M68,33.754H47c-5.79,0-10.5,4.71-10.5,10.5v21c0,5.79,4.71,10.5,10.5,10.5h21c5.79,0,10.5-4.71,10.5-10.5v-21    C78.5,38.464,73.79,33.754,68,33.754z M63.5,60.754h-12v-12h12V60.754z"></path>
	</g>
</g>
<g>
	<g>
		<path d="M492.306,160.52h-24.688v-7.492c0-6.893-5.607-12.5-12.5-12.5h-63.492c-6.893,0-12.5,5.607-12.5,12.5v7.492h-24.688    c-6.893,0-12.5,5.607-12.5,12.5v65.47c0.003,6.893,5.611,12.5,12.503,12.5h7.664v57.842c0,3.753,0,6.018,2.307,8.284    c0.21,0.206,0.432,0.399,0.662,0.577c0.253,0.239,0.752,0.722,1.44,1.416l13.658,13.803c1.981,2.001,4.624,3.103,7.441,3.103    c2.816,0,5.459-1.102,7.439-3.103l10.442-10.55l10.44,10.549c1.981,2.001,4.624,3.103,7.44,3.103c2.816,0,5.457-1.101,7.441-3.103    l10.439-10.549l10.441,10.55c1.98,2.001,4.623,3.103,7.44,3.103c2.815,0,5.457-1.101,7.441-3.103l13.659-13.802    c0.666-0.673,1.154-1.147,1.416-1.395c1.543-1.15,2.897-3.156,2.971-6.65c0.012-0.57,0.02-1.36,0.02-2.236V250.99h7.664    c6.893,0,12.5-5.607,12.5-12.5v-65.47C504.806,166.127,499.199,160.52,492.306,160.52z M469.647,268.686h-0.002    c-2.974,0.995-5.119,3.798-5.119,7.107c0,3.31,2.146,6.112,5.119,7.107v25.589c-0.022,0.022-0.045,0.045-0.067,0.068    l-10.439,10.549l-10.443-10.553c-1.981-2-4.622-3.101-7.438-3.101c-2.816,0-5.459,1.103-7.441,3.104l-10.439,10.548l-10.44-10.549    c-1.981-2.002-4.624-3.103-7.441-3.103c-2.816,0-5.458,1.102-7.439,3.103l-10.442,10.55l-10.439-10.549    c-0.023-0.023-0.046-0.047-0.069-0.07V283.29c4.105-0.044,7.42-3.381,7.42-7.496s-3.314-7.452-7.42-7.496V250.99h92.539V268.686z     M489.809,235.99H356.941v-60.47h22.188v5.018c0,6.893,5.607,12.5,12.5,12.5H414c4.143,0,7.5-3.357,7.5-7.5s-3.357-7.5-7.5-7.5    h-19.871v-22.51h58.492v22.51H450c-4.143,0-7.5,3.357-7.5,7.5s3.357,7.5,7.5,7.5h5.121c6.893,0,12.5-5.607,12.5-12.5v-5.018    h22.188V235.99z"></path>
	</g>
</g>
<g>
	<g>
		<path d="M402.025,268.294h-5c-4.143,0-7.5,3.357-7.5,7.5c0,4.142,3.358,7.5,7.5,7.5h5c4.143,0,7.5-3.357,7.5-7.5    S406.168,268.294,402.025,268.294z"></path>
	</g>
</g>
<g>
	<g>
		<path d="M452.025,268.294h-5c-4.143,0-7.5,3.357-7.5,7.5c0,4.142,3.358,7.5,7.5,7.5h5c4.143,0,7.5-3.357,7.5-7.5    S456.168,268.294,452.025,268.294z"></path>
	</g>
</g>
<g>
	<g>
		<path d="M427.025,268.294h-5c-4.143,0-7.5,3.357-7.5,7.5c0,4.142,3.358,7.5,7.5,7.5h5c4.143,0,7.5-3.357,7.5-7.5    S431.168,268.294,427.025,268.294z"></path>
	</g>
</g>
<g>
	<g>
		<path d="M504.5,483.377H256.714v-15.874c0-6.892-5.608-12.5-12.5-12.5h-15.421l-24.058-62.684    c12.287-5.294,23.601-12.925,33.379-22.675c17.941-17.89,28.901-41.078,31.435-66.105h5.336c6.893,0,12.5-5.607,12.5-12.5v-18.374    c0-6.893-5.607-12.5-12.5-12.5h-43.94c4.63-4.544,8.926-9.532,12.83-14.919h47.211c9.649,0,17.5-7.851,17.5-17.5v-22.492V103.345    h14.832c6.893,0,12.5-5.607,12.5-12.5v-39.36c0-6.893-5.607-12.5-12.5-12.5h-14.832v-7.862c0-9.649-7.851-17.5-17.5-17.5H33.989    c-9.649,0-17.5,7.851-17.5,17.5v174.131v22.492c0,9.649,7.851,17.5,17.5,17.5h47.21c3.904,5.387,8.201,10.375,12.831,14.919H50.09    c-6.893,0-12.5,5.607-12.5,12.5v18.374c0,6.893,5.607,12.5,12.5,12.5h5.335c2.535,25.027,13.496,48.216,31.437,66.105    c9.778,9.75,21.091,17.38,33.378,22.675l-24.058,62.684H80.761c-6.893,0-12.5,5.608-12.5,12.5v15.874H9.679    c-4.142,0-7.5,3.357-7.5,7.5c0,4.142,3.358,7.5,7.5,7.5H504.5c4.143,0,7.5-3.358,7.5-7.5    C512,486.734,508.643,483.377,504.5,483.377z M308.486,53.985h12.332v34.359h-12.332V53.985z M290.986,230.246h-37.889    c2.937-5.556,5.5-11.404,7.662-17.492h32.727v14.992h0C293.486,229.101,292.341,230.246,290.986,230.246z M33.989,230.246    c-1.355,0-2.5-1.145-2.5-2.5v-14.992h32.726c2.162,6.088,4.725,11.936,7.662,17.492H33.989z M71.217,165.776    c0-59.844,40.943-108.53,91.27-108.53c12.189,0,24.022,2.814,35.172,8.366c3.708,1.845,8.211,0.336,10.057-3.371    c1.846-3.708,0.337-8.21-3.371-10.057c-13.245-6.595-27.328-9.938-41.857-9.938c-58.598,0-106.27,55.415-106.27,123.53    c0,11.057,1.268,21.773,3.623,31.978H31.489V31.123c0-1.355,1.145-2.5,2.5-2.5h256.997c1.355,0,2.5,1.145,2.5,2.5v166.631h-28.352    c2.355-10.204,3.623-20.921,3.623-31.978c0-34.443-12.493-67.574-34.276-90.897c-2.828-3.027-7.574-3.188-10.6-0.362    c-3.027,2.827-3.189,7.573-0.362,10.601c19.217,20.576,30.238,49.975,30.238,80.659c0,40.403-18.672,75.707-46.286,94.389h-89.969    C89.889,241.483,71.217,206.18,71.217,165.776z M52.59,288.539v-13.374h219.796v13.374H52.59z M97.451,359.022    c-15.1-15.057-24.45-34.48-26.922-55.483h183.916c-2.471,21.003-11.821,40.426-26.923,55.483    c-17.441,17.392-40.537,26.97-65.035,26.97S114.893,376.414,97.451,359.022z M241.714,483.377H83.261v-13.374H169    c4.142,0,7.5-3.357,7.5-7.5c0-4.142-3.358-7.5-7.5-7.5h-56.752l22.159-57.736c9.048,2.454,18.471,3.726,28.081,3.726    c9.61,0,19.032-1.271,28.079-3.725l22.159,57.735H204c-4.142,0-7.5,3.358-7.5,7.5c0,4.143,3.358,7.5,7.5,7.5h37.714V483.377z"></path>
	</g>
</g>
<g>
	<g>
		<path d="M436.385,50.303c-15.197-4.782-17.028-6.635-21.772-22.029c-1.434-4.638-5.648-7.754-10.487-7.754    c-4.847,0-9.063,3.121-10.487,7.761c-4.742,15.388-6.573,17.24-21.765,22.021c-4.606,1.444-7.701,5.668-7.701,10.51    c-0.001,4.841,3.094,9.066,7.693,10.508c15.197,4.782,17.029,6.635,21.769,22.015c1.427,4.646,5.643,7.769,10.49,7.769    c4.84,0,9.055-3.117,10.489-7.761c4.742-15.388,6.574-17.24,21.763-22.02c4.605-1.443,7.7-5.668,7.7-10.512    C444.077,55.968,440.982,51.745,436.385,50.303z M404.126,78.306c-3.901-8.777-8.678-13.563-17.438-17.495    c8.76-3.93,13.536-8.714,17.438-17.495c3.9,8.778,8.677,13.564,17.436,17.495C412.803,64.742,408.026,69.528,404.126,78.306z"></path>
	</g>
</g>
<g>
	<g>
		<path d="M65.398,406.162c-13.299-4.186-14.709-5.612-18.861-19.085c-1.383-4.477-5.452-7.485-10.126-7.485    c-4.682,0-8.752,3.015-10.125,7.49c-4.15,13.468-5.56,14.895-18.858,19.08C2.986,407.56,0,411.636,0,416.307    c0,4.672,2.988,8.75,7.427,10.142c13.165,4.144,14.752,5.748,18.857,19.07c1.375,4.485,5.446,7.5,10.128,7.5    c4.674,0,8.743-3.009,10.127-7.49c4.109-13.332,5.695-14.938,18.852-19.078c4.446-1.395,7.433-5.471,7.433-10.145    C72.824,411.635,69.839,407.559,65.398,406.162z M36.414,429.933c-3.176-6.508-7.091-10.43-13.591-13.626    c6.499-3.197,10.414-7.117,13.591-13.627c3.176,6.509,7.09,10.43,13.59,13.626C43.505,419.503,39.59,423.424,36.414,429.933z"></path>
	</g>
</g>
<g>
	<g>
		<path d="M348.308,340.523c-12.444-3.917-13.764-5.251-17.646-17.852c-1.361-4.416-5.371-7.383-9.978-7.383    c-4.613,0-8.622,2.971-9.974,7.381c-3.884,12.602-5.203,13.936-17.639,17.851c-4.382,1.373-7.325,5.389-7.325,9.991    c0,4.604,2.943,8.621,7.316,9.992c12.443,3.916,13.763,5.251,17.646,17.849c1.357,4.417,5.365,7.385,9.976,7.385    c4.605,0,8.614-2.964,9.977-7.378c3.885-12.604,5.204-13.939,17.641-17.853c4.379-1.374,7.32-5.391,7.32-9.994    C355.622,345.909,352.681,341.895,348.308,340.523z M320.685,362.575c-2.873-5.626-6.414-9.171-12.034-12.063    c5.619-2.891,9.16-6.436,12.034-12.063c2.874,5.626,6.413,9.17,12.034,12.061C327.098,353.403,323.559,356.947,320.685,362.575z"></path>
	</g>
</g>
<g>
	<g>
		<path d="M105.3,112.439c-1.39-1.389-3.33-2.189-5.3-2.189c-1.98,0-3.91,0.8-5.3,2.189c-1.4,1.4-2.2,3.33-2.2,5.311    c0,1.97,0.8,3.899,2.2,5.3c1.39,1.4,3.33,2.2,5.3,2.2c1.97,0,3.91-0.8,5.3-2.2c1.4-1.4,2.2-3.33,2.2-5.3    C107.5,115.77,106.7,113.84,105.3,112.439z"></path>
	</g>
</g>
<g>
	<g>
		<path d="M231.3,112.439c-1.39-1.39-3.33-2.189-5.3-2.189c-1.97,0-3.91,0.8-5.3,2.189c-1.4,1.4-2.2,3.33-2.2,5.311    c0,1.97,0.8,3.899,2.2,5.3c1.39,1.4,3.33,2.2,5.3,2.2c1.97,0,3.91-0.8,5.3-2.2c1.4-1.4,2.2-3.33,2.2-5.3    C233.5,115.77,232.7,113.84,231.3,112.439z"></path>
	</g>
</g>
<g>
	<g>
		<path d="M105.3,207.439c-1.39-1.389-3.33-2.199-5.3-2.199c-1.98,0-3.91,0.81-5.3,2.199c-1.4,1.4-2.2,3.33-2.2,5.311    c0,1.97,0.8,3.899,2.2,5.3c1.39,1.4,3.33,2.2,5.3,2.2c1.97,0,3.9-0.8,5.3-2.2c1.4-1.4,2.2-3.33,2.2-5.3    C107.5,210.77,106.7,208.84,105.3,207.439z"></path>
	</g>
</g>
<g>
	<g>
		<path d="M231.3,207.439c-1.39-1.39-3.33-2.199-5.3-2.199c-1.98,0-3.91,0.81-5.3,2.199c-1.4,1.4-2.2,3.33-2.2,5.311    c0,1.97,0.8,3.899,2.2,5.3c1.39,1.4,3.33,2.2,5.3,2.2c1.97,0,3.9-0.8,5.3-2.2c1.4-1.4,2.2-3.33,2.2-5.3    C233.5,210.77,232.7,208.84,231.3,207.439z"></path>
	</g>
</g>
<g>
</g>
<g>
</g>
<g>
</g>
<g>
</g>
<g>
</g>
<g>
</g>
<g>
</g>
<g>
</g>
<g>
</g>
<g>
</g>
<g>
</g>
<g>
</g>
<g>
</g>
<g>
</g>
<g>
</g>
</svg>