<svg xmlns="http://www.w3.org/2000/svg" width="512" height="512" viewBox="0 0 512 512"><g><path d="M104,360a24,24,0,1,0,24,24A24.028,24.028,0,0,0,104,360Zm0,32a8,8,0,1,1,8-8A8.009,8.009,0,0,1,104,392Z"></path><path d="M408,360a24,24,0,1,0,24,24A24.028,24.028,0,0,0,408,360Zm0,32a8,8,0,1,1,8-8A8.009,8.009,0,0,1,408,392Z"></path><path d="M360,288h24a8,8,0,0,0,0-16H360a8,8,0,0,0,0,16Z"></path><path d="M248,264h80a8,8,0,0,0,8-8V168a8,8,0,0,0-8-8H248a8,8,0,0,0-8,8v88A8,8,0,0,0,248,264Zm8-16V200h64v48Zm64-72v8H256v-8Z"></path><path d="M136,264h80a8,8,0,0,0,8-8V168a8,8,0,0,0-8-8H136a8,8,0,0,0-8,8v88A8,8,0,0,0,136,264Zm8-16V200h64v48Zm64-72v8H144v-8Z"></path><path d="M504,136V108a28.031,28.031,0,0,0-28-28H36A28.031,28.031,0,0,0,8,108V364a28.031,28.031,0,0,0,28,28H48.58a55.994,55.994,0,0,0,110.84,0H352.58a55.994,55.994,0,0,0,110.84,0H476a28.031,28.031,0,0,0,28-28V256a8.051,8.051,0,0,0-.75-3.38L452.56,144H496A8,8,0,0,0,504,136ZM24,176H96v8H24Zm0,24H96v48H24Zm0,96H40a8,8,0,0,1,0,16H24Zm80,128a40,40,0,1,1,40-40A40.04,40.04,0,0,1,104,424Zm304,0a40,40,0,1,1,40-40A40.04,40.04,0,0,1,408,424Zm80-60a12.01,12.01,0,0,1-12,12H463.42a55.994,55.994,0,0,0-110.84,0H159.42a55.994,55.994,0,0,0-110.84,0H36a12.01,12.01,0,0,1-12-12V328H40a24.031,24.031,0,0,0,22.62-16H449.38A24.031,24.031,0,0,0,472,328h16Zm0-52H472a8,8,0,0,1,0-16h16Zm0-32H472a24.031,24.031,0,0,0-22.62,16H62.62A24.031,24.031,0,0,0,40,280H24V264h80a8,8,0,0,0,8-8V168a8,8,0,0,0-8-8H24V144H434.91l7.46,16H360a8,8,0,0,0-8,8v88a8,8,0,0,0,8,8H488Zm-4.56-32H368V176h81.84ZM488,128H24V108A12.01,12.01,0,0,1,36,96H476a12.01,12.01,0,0,1,12,12Z"></path><path d="M104,104H48a8,8,0,0,0,0,16h56a8,8,0,0,0,0-16Z"></path><path d="M136,104h-8a8,8,0,0,0,0,16h8a8,8,0,0,0,0-16Z"></path></g></svg>